<svg width="142" height="137" viewBox="0 0 142 137" fill="none" xmlns="http://www.w3.org/2000/svg">
<path d="M131 84.6976C122.602 72.2879 119.335 65.0381 116.432 52.1652C85.6213 51.0085 24 48.9902 24 50.0313V96.0103L43.5915 98.1791L96.338 112.927C109.057 114.116 116.077 114.254 127.986 111.626L121.455 94.2752C127.856 92.3448 129.292 89.7713 131 84.6976Z" fill="white" stroke="black" stroke-width="2"/>
<path d="M103 128.242V88.7422L94.5 97.7422V119.742C97.3333 122.409 103 127.842 103 128.242Z" fill="white" stroke="black" stroke-width="2"/>
<path d="M88.8663 24.7422L35.0802 34.7917L20 56.2016L24.5241 104.265C35.3899 111.652 42.3906 115.735 69.7647 121.742C87.5151 119.011 91.1188 115.533 107.968 104.265L104.952 94.2152L114 56.2016L88.8663 24.7422Z" fill="white" stroke="black" stroke-width="2"/>
<path d="M38.9779 134.742V42.249L116.995 53.6463C116.074 46.9963 116.403 43.8917 116.979 38.4548L116.995 38.3038L139 20.3312C119.992 21.0127 109.309 22.4169 90.4893 17.7011L87.9887 6.74219L68.9846 15.071C56.0519 19.7315 48.0254 20.1499 33.9768 21.6463V26.4682H26.701L7.97108 42.249C11.7145 60.4667 10.9005 69.2468 4.97042 83.8929C0.389414 90.3385 0.662045 95.8179 1.46965 105.811C7.22221 105.967 10.4454 106.123 17.4732 115.016C23.153 119.193 24.3978 116.592 26.4913 111.509L25.9751 125.537L38.9779 134.742Z" fill="white"/>
<path d="M27.9755 71.1805L26.701 105.811L26.4913 111.509M26.4913 111.509L25.9751 125.537L38.9779 134.742V42.249L116.995 53.6463C116.066 46.935 116.409 43.8347 116.995 38.3038L139 20.3312C119.992 21.0127 109.309 22.4169 90.4893 17.7011L87.9887 6.74219L68.9845 15.071C56.0519 19.7315 48.0254 20.1499 33.9768 21.6463V26.4682H26.701L7.97108 42.249C11.7145 60.4667 10.9005 69.2468 4.97042 83.8929C0.389414 90.3385 0.662045 95.8179 1.46965 105.811C7.22221 105.967 10.4454 106.123 17.4732 115.016C23.153 119.193 24.3978 116.592 26.4913 111.509Z" stroke="black" stroke-width="2"/>
<path d="M71 77.7422C64.0614 64.9431 64.1043 58.1382 66.5 46.2763C49.5496 51.5046 40.2296 54.527 42 67.9922C34.5626 62.6175 36.6131 55.5501 33 38.7422L95 42.7308C101.97 44.7271 105.729 46.351 111.5 52.0376C114.803 57.7167 116.05 61.0057 114 67.9922C116.34 73.5377 118.638 74.0201 123 74.1967C115.438 76.534 112.178 76.9244 107.5 76.4126C97.1322 71.6018 92.3306 66.2243 85.5 52.0376C85.1419 65.4724 82.6934 71.407 71 77.7422Z" fill="white" stroke="black" stroke-width="1.5"/>
<path d="M17.5205 76.0315C21.0481 74.7378 27 78.2025 27 78.2025V99.2422C27 99.2422 20.0467 96.6867 17.5205 94.7027C13.948 91.8968 12.7904 88.8987 13.0303 84.7158C13.2433 81.0014 13.5827 77.4756 17.5205 76.0315Z" fill="white" stroke="black" stroke-width="1.5"/>
<rect x="29.4844" y="34.2422" width="80" height="12" fill="white"/>
<rect x="97" y="41.7422" width="14" height="12" fill="white"/>
<path d="M110.251 43.8556L107 45.8906L114.574 55.1178L116.5 53.9119L115.651 50.4344L110.251 43.8556Z" fill="white"/>
<path d="M57.7949 60.7939C68.2566 60.794 76.5537 67.803 76.5537 76.2422C76.5537 84.6814 68.2566 91.6903 57.7949 91.6904C47.3332 91.6904 39.0361 84.6815 39.0361 76.2422C39.0361 67.8029 47.3332 60.7939 57.7949 60.7939Z" stroke="black" stroke-width="1.10345"/>
<path d="M96.4141 61.8955C106.253 61.8956 114.069 68.6464 114.069 76.792C114.069 84.9376 106.253 91.6884 96.4141 91.6885C86.5749 91.6885 78.7588 84.9376 78.7588 76.792C78.7588 68.6464 86.5749 61.8955 96.4141 61.8955Z" stroke="black" stroke-width="1.10345"/>
<path d="M76 77.8984H78.7414" stroke="black" stroke-width="1.10345"/>
<path d="M29.9844 20.7422L23.9844 1.74219L10.4844 13.2422L29.9844 20.7422Z" fill="white" stroke="black" stroke-width="2"/>
</svg>
